<svg xmlns="http://www.w3.org/2000/svg" viewBox="0 0 2560 1080" width="2560" height="1080" preserveAspectRatio="xMidYMid slice" style="width: 100%; height: 100%; transform: translate3d(0px, 0px, 0px);"><defs><clipPath id="__lottie_element_79"><rect width="2560" height="1080" x="0" y="0"></rect></clipPath></defs><g clip-path="url(#__lottie_element_79)"><g transform="matrix(1.84443998336792,0,0,1.3777799606323242,-47.996826171875,-80.0009765625)" opacity="1" style="display: block;"><rect width="1440" height="900" fill="#051a3b"></rect></g><g transform="matrix(1,0,0,1,560,90)" opacity="1" style="display: block;"><g opacity="1" transform="matrix(1,0,0,1,720,264)"><path fill="rgb(250,249,249)" fill-opacity="1" d=" M-720,-672 C-720,-672 720,-672 720,-672 C720,-672 1336,-673.68798828125 1336,-673.68798828125 C1336,-673.68798828125 1318,264.3819885253906 1318,264.3819885253906 C1318,264.3819885253906 720,264 720,264 C11,264 -2.000999927520752,-128.24400329589844 -720,-128.24400329589844 C-720,-128.24400329589844 -1546,-129.13800048828125 -1546,-129.13800048828125 C-1546,-129.13800048828125 -1512,-674.7680053710938 -1512,-674.7680053710938 C-1512,-674.7680053710938 -720,-672 -720,-672z"></path></g></g></g></svg>